<svg id="Layer_1" data-name="Layer 1" xmlns="http://www.w3.org/2000/svg" viewBox="0 0 24.08 22.87"><defs><style>.cls-1{fill:#fbf8f5;}</style></defs><path class="cls-1" d="M8.2,7.4s-4.5.5-7.6.8a.74.74,0,0,0-.6.5.57.57,0,0,0,.2.7l5.6,5.1L4.3,22a.52.52,0,0,0,.3.7.6.6,0,0,0,.8,0C8,21.3,12,19,12,19l6.6,3.8a1.1,1.1,0,0,0,.8,0,1.08,1.08,0,0,0,.3-.7l-1.5-7.5,5.6-5.1a.78.78,0,0,0,.2-.8.63.63,0,0,0-.6-.5c-3-.3-7.6-.8-7.6-.8S13.9,3.2,12.7.5C12.5.2,12.3,0,12,0a1,1,0,0,0-.7.4C10.1,3.2,8.2,7.4,8.2,7.4Z" transform="translate(0.04)"/></svg>