<?xml version="1.0" encoding="utf-8"?>
<!-- Generator: Adobe Illustrator 25.3.1, SVG Export Plug-In . SVG Version: 6.00 Build 0)  -->
<svg version="1.1" id="Layer_1" xmlns="http://www.w3.org/2000/svg" xmlns:xlink="http://www.w3.org/1999/xlink" x="0px" y="0px"
	 viewBox="0 0 18 10" style="enable-background:new 0 0 18 10;" xml:space="preserve">
<style type="text/css">
	.st0{fill:#FBF8F5;}
	.st1{fill:none;}
</style>
<g id="Layer_2_1_">
	<path class="st0" d="M17,10c-0.3,0-0.5-0.1-0.7-0.3L9,2.4L1.7,9.7c-0.4,0.4-1,0.4-1.4,0s-0.4-1,0-1.4l8-8c0.4-0.4,1-0.4,1.4,0
		c0,0,0,0,0,0l8,8c0.4,0.4,0.4,1,0,1.4c0,0,0,0,0,0C17.5,9.9,17.3,10,17,10z"/>
</g>
<g id="frame">
	<rect x="-7" y="-11" class="st1" width="32" height="32"/>
</g>
<g id="hbiiQr.tif">
	
		<image style="overflow:visible;" width="376" height="178" id="Layer_0" xlink:href="5B43423479ECA39D.png"  transform="matrix(1.6436 0 0 1.9635 21.3904 -173.1326)">
	</image>
</g>
</svg>
