<?xml version="1.0" encoding="utf-8"?>
<!-- Generator: Adobe Illustrator 25.3.1, SVG Export Plug-In . SVG Version: 6.00 Build 0)  -->
<svg version="1.1" id="Layer_1" xmlns="http://www.w3.org/2000/svg" xmlns:xlink="http://www.w3.org/1999/xlink" x="0px" y="0px"
	 viewBox="0 0 24 22.9" style="enable-background:new 0 0 24 22.9;" xml:space="preserve">
<style type="text/css">
	.st0{fill:#F96E2B;}
	.st1{fill:#FBF8F5;}
</style>
<g>
	<g>
		<path class="st1" d="M8.2,7.4c0,0-4.5,0.5-7.6,0.8C0.4,8.2,0.1,8.4,0,8.7s0,0.6,0.2,0.7c2.3,2.1,5.6,5.1,5.6,5.1
			c0,0-0.9,4.5-1.5,7.5c-0.1,0.3,0,0.6,0.3,0.7c0.2,0.2,0.5,0.2,0.8,0C8,21.3,12,19,12,19s4,2.3,6.6,3.8c0.2,0.1,0.5,0.1,0.8,0
			c0.2-0.2,0.3-0.5,0.3-0.7c-0.6-3-1.5-7.5-1.5-7.5s3.4-3.1,5.6-5.1C24,9.3,24.1,9,24,8.7c-0.1-0.3-0.3-0.5-0.6-0.5
			c-3-0.3-7.6-0.8-7.6-0.8s-1.9-4.2-3.1-6.9C12.5,0.2,12.3,0,12,0s-0.5,0.2-0.7,0.4C10.1,3.2,8.2,7.4,8.2,7.4z"/>
	</g>
</g>
<g>
	<g>
		<path class="st0" d="M12,0c-0.3,0-0.5,0.2-0.7,0.4c-1.3,2.8-3.1,6.9-3.1,6.9S3.7,7.9,0.6,8.2C0.4,8.2,0.1,8.4,0,8.7s0,0.6,0.2,0.7
			c2.3,2.1,5.6,5.1,5.6,5.1c0,0-0.9,4.5-1.5,7.5c-0.1,0.3,0,0.6,0.3,0.7c0.2,0.2,0.5,0.2,0.8,0C8,21.3,12,19,12,19L12,0z"/>
	</g>
</g>
</svg>
